<svg xmlns="http://www.w3.org/2000/svg" width="512" height="512" viewBox="0 0 512 512" version="1.1">
	<path d="M 230.325 39.095 C 195.648 43.136, 155.076 59.509, 125.656 81.334 C 83.532 112.584, 55.600 158.675, 45.564 213.494 C 35.114 270.573, 47.648 331.669, 79.872 380.719 C 95.405 404.364, 119.980 428.317, 143.116 442.363 C 192.185 472.154, 252.303 481.365, 307.064 467.484 C 359.729 454.134, 402.733 423.748, 432.295 379 C 445.532 358.964, 458.291 329.194, 463.882 305.304 C 470.789 275.790, 470.814 236.404, 463.945 207 C 452.605 158.458, 430.823 120.214, 397.975 91.175 C 373.362 69.415, 335.081 49.729, 304.340 43.022 C 282.945 38.353, 251.162 36.668, 230.325 39.095 M 231.500 55.676 C 198.313 59.841, 160.002 76.503, 130.163 99.749 C 92.829 128.835, 66.939 177.065, 61.047 228.507 C 59.539 241.668, 59.775 268.179, 61.518 281.474 C 63.294 295.029, 68.544 316.239, 73.062 328.122 C 84.023 356.947, 97.486 378.599, 116.047 397.250 C 123.026 404.262, 129.443 410, 130.308 410 C 131.402 410, 131.974 408.861, 132.190 406.250 C 132.499 402.507, 132.511 402.499, 137.951 401.835 C 141.432 401.410, 143.873 400.527, 144.701 399.394 C 145.623 398.133, 146 393.463, 146 383.309 L 146 369 143.159 369 C 141.596 369, 138.109 369.670, 135.409 370.489 C 128.382 372.621, 124 372.489, 124 370.145 C 124 368.589, 122.945 368.191, 117.474 367.680 C 109.170 366.904, 103.379 364.335, 99.193 359.568 C 94.351 354.052, 95.060 351.727, 101.884 350.749 C 104.846 350.325, 109.796 349.227, 112.884 348.310 L 118.500 346.643 115 345.914 C 113.075 345.513, 108.637 344.712, 105.138 344.133 C 101.639 343.553, 97.139 342.234, 95.138 341.201 C 91.022 339.075, 86.159 332.745, 85.764 329 C 85.501 326.512, 85.549 326.497, 95.500 325.982 C 101 325.698, 106.363 324.963, 107.418 324.349 C 109.154 323.338, 109.012 323.164, 105.918 322.508 C 98.159 320.864, 92 314.451, 92 308.015 C 92 305.372, 92.326 304.872, 93.750 305.334 C 104.653 308.865, 117.340 311.989, 120.800 311.994 C 126.322 312.002, 129.927 310.092, 134.276 304.856 L 137.769 300.652 139.347 303.705 C 141.223 307.332, 143.818 308.638, 144.681 306.389 C 145.014 305.521, 145.334 289.805, 145.393 271.463 C 145.478 245.043, 145.226 237.842, 144.179 236.807 C 143.090 235.729, 142.507 235.930, 140.857 237.950 C 138.530 240.799, 136.351 240.049, 134.195 235.658 C 131.034 229.217, 138.265 224.462, 155.634 221.557 C 170.457 219.079, 202.363 218, 260.822 218 C 317.340 218, 342.953 218.966, 355.298 221.563 C 364.900 223.583, 365 223.561, 365 219.475 C 365 215.008, 364.067 214.631, 345 211.399 C 322.760 207.630, 299.766 206.730, 239.500 207.272 C 190.910 207.710, 184.147 207.970, 172 209.876 C 160.049 211.751, 144.528 215.393, 139.865 217.416 C 138.547 217.988, 138 217.170, 137.046 213.193 C 135.172 205.380, 125.645 198.079, 117.250 198.022 C 114.552 198.004, 114.001 197.618, 114.004 195.750 C 114.014 189.592, 121.421 183.252, 135.477 177.368 C 140.165 175.405, 144 173.487, 144 173.104 C 144 172.722, 146.017 169.054, 148.483 164.954 C 150.949 160.854, 152.974 156.791, 152.983 155.924 C 152.992 155.058, 151.875 153.292, 150.500 152 C 142.646 144.621, 155.339 132.947, 179.361 125.458 L 188.205 122.700 192.445 116.100 C 197.821 107.729, 207.707 98.482, 215.983 94.081 C 219.519 92.201, 227.382 89.051, 233.456 87.081 L 244.500 83.500 244.500 78 C 244.500 73.362, 244.918 72.089, 247.170 69.876 C 248.933 68.142, 250.075 65.685, 250.532 62.638 C 251.624 55.353, 251.211 54.978, 242.281 55.150 C 238.002 55.232, 233.150 55.469, 231.500 55.676 M 261.345 56.542 C 261.020 57.390, 260.977 60.411, 261.250 63.255 C 261.654 67.449, 262.316 68.905, 264.761 70.963 C 267.561 73.320, 267.739 73.866, 267.270 78.652 C 266.680 84.665, 266.740 84.717, 277.500 87.458 C 281.350 88.439, 288.705 91.204, 293.844 93.602 C 301.449 97.151, 304.540 99.315, 310.453 105.231 C 314.449 109.229, 318.875 114.786, 320.290 117.580 L 322.862 122.661 331.374 124.909 C 346.521 128.911, 358.970 136.174, 362.551 143.099 C 364.686 147.227, 364.345 149.296, 361 152.500 C 359.350 154.081, 358 156.083, 358 156.950 C 358 157.817, 359.585 160.880, 361.522 163.757 C 363.460 166.634, 365.476 170.121, 366.002 171.506 C 366.529 172.891, 368.206 174.523, 369.730 175.132 C 386.548 181.856, 396.460 189.301, 395.810 194.721 C 395.552 196.869, 394.668 197.545, 390.552 198.739 C 383.833 200.690, 377.104 205.506, 375.400 209.585 C 373.445 214.264, 373.603 225.099, 375.690 229.476 C 376.959 232.137, 377.141 233.701, 376.420 235.759 C 375.313 238.918, 371.958 239.859, 370.040 237.548 C 368.375 235.542, 365.383 235.561, 364.607 237.582 C 363.809 239.661, 363.840 298.401, 364.642 303.250 C 365.158 306.371, 365.665 307, 367.665 307 C 369.370 307, 370.693 305.939, 372.224 303.344 L 374.381 299.689 375.941 302.071 C 379.512 307.526, 383.392 311.029, 386.915 311.977 C 391 313.077, 395.974 312.097, 410.338 307.361 C 419.810 304.239, 421.258 304.885, 418.499 311.002 C 416.094 316.335, 410.042 321.714, 405.485 322.569 C 399.057 323.775, 403.395 325.465, 414.289 326 C 426.253 326.587, 426.927 327.318, 421.754 334.100 C 416.077 341.544, 410.973 344.102, 398.268 345.870 L 392.500 346.673 395.500 347.944 C 397.150 348.643, 401.875 349.504, 406 349.857 C 413.469 350.497, 413.501 350.513, 413.799 353.553 C 414.454 360.248, 404.421 366.972, 393.750 366.990 C 388.030 367, 388 367.016, 388 370 C 388 373.743, 387.206 373.777, 374.861 370.562 C 369.712 369.221, 365.128 368.491, 364.674 368.938 C 363.366 370.227, 364.296 398.702, 365.691 400.094 C 366.346 400.748, 369.271 401.506, 372.191 401.780 C 377.988 402.324, 378.962 403.108, 378.985 407.250 C 378.993 408.762, 379.424 410, 379.943 410 C 381.803 410, 394.282 398.594, 401.680 390.132 C 430.323 357.369, 449.345 309.012, 451.634 263.142 C 453.832 219.089, 438.154 166.649, 412.354 131.753 C 386.885 97.304, 346.462 71.316, 300 59.521 C 282.673 55.122, 262.487 53.566, 261.345 56.542 M 240.297 96.474 C 237.436 97.278, 232.261 99.119, 228.797 100.566 C 219.029 104.647, 201.451 116.843, 203.089 118.403 C 203.315 118.618, 207.775 117.953, 213 116.926 C 229.887 113.605, 251.775 112.433, 270.754 113.834 C 279.964 114.514, 291.887 115.893, 297.250 116.899 C 308.923 119.089, 309.732 118.206, 301.796 111.933 C 295.703 107.117, 285.352 101.726, 275.500 98.239 C 266.610 95.092, 248.463 94.182, 240.297 96.474 M 231 127.678 C 212.894 129.529, 192.751 134.778, 173.501 142.661 C 167.451 145.139, 162.355 147.312, 162.177 147.490 C 161.998 147.668, 162.597 149.254, 163.508 151.015 C 165.747 155.346, 164.833 158.195, 159.308 164.102 C 156.772 166.813, 154.878 169.201, 155.099 169.410 C 155.319 169.619, 160.225 168.706, 166 167.381 C 188.162 162.299, 211.946 159.902, 246.233 159.295 C 287.994 158.556, 307.832 160.176, 341.268 167.055 C 349.027 168.652, 355.493 169.840, 355.637 169.697 C 355.780 169.553, 354.290 167.425, 352.324 164.968 C 346.873 158.154, 345.877 155.230, 347.601 151.103 C 348.385 149.228, 348.881 147.548, 348.703 147.370 C 348.526 147.192, 345.476 145.730, 341.925 144.120 C 325.203 136.538, 300.407 130.189, 279.144 128.044 C 269.575 127.079, 239.121 126.848, 231 127.678 M 218.500 177.683 C 178.310 181.170, 139 190.205, 139 195.955 C 139 196.909, 139.860 198.469, 140.912 199.420 C 142.705 201.043, 143.468 201.053, 153.162 199.575 C 179.696 195.530, 225.878 193.653, 278 194.501 C 318.564 195.161, 338.728 196.232, 356.263 198.659 C 367.471 200.210, 368.119 200.202, 370.013 198.489 C 374.569 194.365, 371.707 192.470, 354.282 188.071 C 321.741 179.856, 294.489 176.934, 252.589 177.168 C 236.040 177.261, 220.700 177.492, 218.500 177.683 M 296.693 226.700 C 295.699 226.958, 294.462 228.285, 293.943 229.649 C 293.424 231.014, 293 244.444, 293 259.494 C 293 291.069, 292.697 290, 301.639 290 L 307.135 290 306.788 260.750 C 306.596 244.662, 306.080 230.744, 305.640 229.820 C 305.032 228.544, 299.171 225.460, 298.601 226.116 C 298.545 226.180, 297.687 226.443, 296.693 226.700 M 205 227.694 C 201.187 229.057, 201 230.601, 201 260.741 L 201 290.100 206.750 289.800 L 212.500 289.500 213.218 260.125 C 213.686 240.996, 213.586 230.096, 212.933 228.875 C 211.952 227.042, 208.332 226.503, 205 227.694 M 247.861 228.911 L 245.500 230.822 244.882 311.258 C 244.403 373.475, 243.960 392.875, 242.926 396.911 C 241.775 401.401, 241.792 402.256, 243.045 403.049 C 245.422 404.553, 260.337 404.205, 262.539 402.595 C 264.433 401.210, 264.432 401.134, 262.480 397.345 C 260.559 393.614, 260.494 391.069, 260.307 311.529 C 260.127 234.769, 260.004 229.476, 258.366 228.279 C 255.803 226.404, 250.568 226.719, 247.861 228.911 M 157 232.940 C 155.686 233.710, 155.500 243.814, 155.500 314.256 C 155.500 402.548, 155.171 398, 161.566 398 C 168.328 398, 168 402.195, 168 315.701 L 168 237.846 165.077 234.923 C 162.104 231.950, 159.697 231.359, 157 232.940 M 342.592 234.171 C 341.168 236.205, 341 244.866, 341 316.187 C 341 394.003, 341.047 395.955, 342.934 396.965 C 345.629 398.407, 350.541 398.258, 351.839 396.694 C 352.596 395.782, 352.960 370.813, 353.046 313.944 L 353.169 232.500 348.677 232.199 C 344.944 231.949, 343.916 232.282, 342.592 234.171 M 179.035 251.934 C 178.350 253.214, 178 277.103, 178 322.500 C 178 367.897, 178.350 391.786, 179.035 393.066 C 179.696 394.300, 181.127 395, 182.990 395 C 185.496 395, 185.993 394.540, 186.500 391.750 C 186.825 389.962, 186.958 358.081, 186.796 320.903 C 186.482 249.246, 186.534 250, 181.913 250 C 180.899 250, 179.605 250.870, 179.035 251.934 M 226.750 251.080 C 224.524 252.377, 224.411 258.268, 226.571 260.429 C 228.982 262.839, 233.677 262.422, 235.504 259.635 C 239.001 254.297, 232.364 247.810, 226.750 251.080 M 274.223 251.557 C 271.300 253.604, 271.120 259.459, 273.934 260.965 C 280.534 264.497, 286.248 257.248, 281 252 C 278.593 249.593, 277.160 249.499, 274.223 251.557 M 323.516 252.335 C 322.173 254.384, 322.018 263.224, 322.243 324.585 L 322.500 394.500 325.895 394.824 C 327.937 395.019, 329.625 394.621, 330.130 393.824 C 331.392 391.833, 331.232 254.302, 329.965 251.934 C 328.556 249.301, 325.374 249.499, 323.516 252.335 M 118.161 267.933 C 116.927 271.763, 115.646 277.194, 115.313 280.002 C 114.889 283.582, 114.393 284.793, 113.654 284.054 C 111.307 281.707, 110 282.980, 110 287.617 C 110 291.951, 109.863 292.189, 107.750 291.512 C 100.176 289.083, 98.409 291.475, 102.221 298.996 C 107.429 309.271, 122.638 311.881, 130.190 303.796 C 133.632 300.112, 134.836 296.143, 132.885 294.908 C 132.123 294.425, 129.137 294.024, 126.250 294.015 C 120.577 293.999, 119.073 292.101, 123.048 289.974 C 126.560 288.095, 127.198 284.576, 125.025 279.063 C 123.960 276.362, 122.785 271.755, 122.414 268.826 C 121.363 260.538, 120.595 260.376, 118.161 267.933 M 389 263.631 C 389 265.079, 387.645 270.210, 385.988 275.035 C 382.635 284.801, 382.944 288.106, 387.401 290.137 C 391.084 291.815, 389.482 293.699, 383.918 294.234 C 381.189 294.496, 378.700 294.967, 378.387 295.280 C 377.377 296.290, 379.098 300.041, 382.180 303.552 C 386.931 308.963, 394.773 310.088, 402.102 306.408 C 407.859 303.518, 413.478 294.201, 411.447 290.914 C 410.758 289.799, 406.322 290.109, 402.750 291.522 C 401.236 292.120, 401 291.592, 401 287.607 C 401 285.073, 400.611 283, 400.135 283 C 399.659 283, 397.972 283.977, 396.385 285.171 C 394.798 286.365, 394.063 286.725, 394.750 285.971 C 396.621 283.919, 396.292 280.466, 393.252 270.253 C 390.502 261.011, 389 258.673, 389 263.631 M 227.978 283.250 C 227.966 285.038, 227.088 288.413, 226.027 290.750 L 224.098 295 216.299 295.011 C 212.010 295.017, 206.801 295.303, 204.725 295.646 L 200.949 296.270 201.225 349.052 C 201.376 378.082, 201.877 402.209, 202.337 402.667 C 203.759 404.081, 226.479 403.679, 228.250 402.209 C 229.105 401.498, 230.573 397.782, 231.512 393.950 C 233.108 387.440, 233.110 386.817, 231.551 384.438 C 230.634 383.038, 229.235 381.644, 228.442 381.339 C 227.257 380.885, 227 377.438, 227 361.991 L 227 343.196 229.932 342.174 C 234.412 340.612, 234.988 336.717, 234.994 307.950 C 235 280.912, 234.847 280, 230.300 280 C 228.376 280, 227.996 280.532, 227.978 283.250 M 275.667 280.667 C 275.300 281.033, 275 292.653, 275 306.489 C 275 333.546, 275.968 340.220, 280.080 341.525 C 281.136 341.861, 282.028 342.667, 282.063 343.317 C 282.097 343.968, 282.078 352.375, 282.020 362 L 281.915 379.500 278.834 382.415 C 275.987 385.111, 275.794 385.715, 276.280 390.429 C 277.084 398.213, 279.676 402.849, 283.642 403.593 C 289.112 404.619, 303.524 403.642, 305.356 402.120 C 306.872 400.861, 306.995 396.141, 306.759 348.120 L 306.500 295.500 295.859 295.217 L 285.218 294.935 283.237 290.217 C 282.147 287.623, 280.965 284.262, 280.609 282.750 C 279.994 280.137, 277.323 279.011, 275.667 280.667 M 137.380 414.452 C 136.536 416.652, 137.325 417.421, 147.245 424.056 C 170.414 439.554, 200.830 451.311, 228.573 455.492 C 241.530 457.445, 268.502 457.440, 281.500 455.482 C 309.989 451.191, 341.122 439.406, 363.693 424.369 C 375.734 416.347, 375.622 416.454, 374.035 414.542 C 372.895 413.169, 359.924 413, 255.346 413 C 153.626 413, 137.863 413.194, 137.380 414.452" stroke="none" fill="black" fill-rule="evenodd"/>
</svg>