<svg xmlns="http://www.w3.org/2000/svg" width="512" height="512" viewBox="0 0 512 512" version="1.1">
	<path d="M 241.301 39.015 C 220.387 41.170, 204.695 45.666, 185.500 55.003 C 164.171 65.379, 148.590 77.339, 134.446 94.190 C 106.837 127.084, 93.989 162.803, 93.863 207.015 C 93.840 214.998, 94.136 223.211, 94.522 225.265 C 95.549 230.738, 98.132 230.198, 101.776 223.750 C 106 216.278, 113.159 210.045, 123.877 204.509 C 133.727 199.422, 134.018 199.082, 137.122 189.042 C 140.814 177.096, 161.477 171.911, 170.916 180.562 L 174.500 183.846 174.500 268.510 L 174.500 353.173 171.694 355.587 C 167.945 358.812, 162.803 358.836, 160.289 355.640 C 158.384 353.218, 157.313 342.649, 148.432 238.609 C 147.123 223.269, 145.875 210.541, 145.658 210.325 C 145.181 209.847, 130.511 220.579, 123.250 226.716 C 119.886 229.560, 118.001 231.935, 118.002 233.327 C 118.003 234.522, 120.266 249.225, 123.030 266 C 127.514 293.211, 130.457 309.781, 141.058 367.500 C 142.674 376.300, 144.652 385.300, 145.454 387.500 C 147.408 392.860, 147.657 429.258, 145.750 430.700 C 143.892 432.105, 124.364 439.603, 117.756 441.448 C 114.124 442.463, 111.483 443.870, 110.575 445.276 C 109.356 447.164, 104 460.476, 104 461.619 C 104 461.829, 172.143 462, 255.429 462 L 406.859 462 404.013 453.869 C 402.448 449.398, 400.513 445.084, 399.713 444.285 C 398.914 443.485, 394.713 441.785, 390.380 440.506 C 380.937 437.721, 365.879 432.105, 364.543 430.870 C 362.987 429.433, 363.825 390.277, 365.513 385.500 C 366.290 383.300, 369.230 368, 372.047 351.500 C 379.669 306.847, 389.189 253.158, 392.439 236.500 C 392.784 234.731, 392.506 232.853, 391.762 231.923 C 390.124 229.877, 364.039 210, 362.992 210 C 362.552 210, 361.902 214.838, 361.547 220.750 C 360.708 234.732, 359.547 250.446, 356.508 289 C 355.142 306.325, 353.590 327.677, 353.059 336.448 C 351.947 354.833, 350.985 357.272, 344.635 357.811 C 341.696 358.061, 340.401 357.555, 338.107 355.261 L 335.245 352.399 334.519 280.950 C 334.119 241.652, 333.951 203.791, 334.146 196.813 C 334.494 184.332, 334.548 184.075, 337.452 181.047 C 342.850 175.419, 351.819 174.715, 362.053 179.118 C 368.321 181.814, 371.434 185.472, 372.993 191.972 C 374.387 197.782, 376.217 199.456, 387.903 205.605 C 397.138 210.464, 405.289 217.771, 409.195 224.691 C 410.843 227.611, 412.834 230, 413.620 230 C 416.541 230, 417.211 224.852, 416.679 206.500 C 416.270 192.395, 415.589 185.795, 413.528 176 C 407.085 145.370, 394.833 119.182, 376.611 97.092 C 364.282 82.146, 341.228 64.155, 322.096 54.549 C 298.388 42.646, 266.177 36.453, 241.301 39.015 M 229.500 56.595 C 218.212 58.592, 204.195 63.244, 192.346 68.926 C 148.819 89.799, 119.952 129.420, 111.220 180.275 C 109.317 191.355, 109.829 193.312, 114.759 193.807 C 119.350 194.267, 121.597 191.236, 122.388 183.518 C 123.345 174.181, 127.640 158.052, 132.036 147.288 C 158.571 82.324, 230.413 48.806, 295.601 70.979 C 327.853 81.948, 358.940 110.031, 373.459 141.311 C 379.753 154.872, 384.525 170.987, 386.477 185.271 C 387.228 190.768, 390.038 194, 394.066 194 C 400.080 194, 400.277 189.228, 395.105 168.749 C 380.510 110.962, 333.202 66.004, 277.074 56.582 C 265.375 54.618, 240.634 54.625, 229.500 56.595 M 245.500 106.632 C 228.064 109.327, 211.487 119.938, 202.024 134.464 C 186.096 158.910, 190.143 195.981, 211 216.694 C 218.540 224.183, 231.423 230.469, 243.381 232.495 C 254.452 234.371, 257.864 234.375, 267.540 232.524 C 285.036 229.176, 302.711 216.512, 309.939 202.144 C 319.188 183.757, 319.495 157.750, 310.668 140.331 C 302.592 124.393, 288.463 112.766, 271.985 108.496 C 265.502 106.816, 250.940 105.791, 245.500 106.632 M 249.427 126.042 C 245.834 134.431, 245.228 135.248, 241.305 136.983 C 235.209 139.680, 227.463 147.357, 224.262 153.875 C 221.860 158.767, 221.503 160.673, 221.520 168.500 C 221.544 179.233, 223.515 184.120, 231.226 192.556 C 234.962 196.644, 237.591 198.472, 242.093 200.114 C 246.319 201.655, 248.173 202.888, 248.520 204.390 C 248.789 205.550, 249.830 210.058, 250.833 214.406 C 252.635 222.211, 252.699 222.314, 255.851 222.406 C 258.659 222.489, 259.175 222.077, 260.126 219 C 260.721 217.075, 261.539 210.775, 261.944 205 C 262.349 199.225, 262.753 196.637, 262.840 199.250 C 262.928 201.863, 263.243 204, 263.540 204 C 263.837 204, 265.749 203.145, 267.790 202.099 C 282.800 194.410, 291.796 178.762, 289.208 164.843 C 288.591 161.524, 287.079 156.714, 285.848 154.154 C 282.694 147.595, 273.529 138.676, 268.072 136.857 C 263.979 135.493, 263.312 134.746, 258.993 126.692 C 256.429 121.910, 254.102 117.769, 253.821 117.488 C 253.540 117.207, 251.563 121.056, 249.427 126.042 M 193.655 222.829 C 192.145 224.498, 192 231.489, 192 302.773 L 192 380.888 194.413 383.694 L 196.827 386.500 252.840 386.500 C 308.099 386.500, 308.891 386.472, 311.653 384.410 C 313.193 383.260, 314.756 381.235, 315.127 379.910 C 316.170 376.178, 316.080 232.052, 315.031 227.527 C 314.524 225.342, 313.324 222.979, 312.364 222.277 C 309.757 220.370, 303.581 220.709, 300.861 222.908 C 298.745 224.618, 298.448 225.838, 298 234.658 L 297.500 244.500 253.500 244.500 L 209.500 244.500 209 234.658 C 208.552 225.838, 208.255 224.618, 206.139 222.908 C 203 220.371, 195.920 220.326, 193.655 222.829 M 248.173 264.184 C 222.069 267.119, 205 286.617, 205 313.500 C 205 331.283, 212.488 346.317, 226.187 356.034 C 255.407 376.764, 294.596 361.968, 303.637 326.793 C 305.704 318.750, 304.984 304.940, 302.061 296.581 C 294.279 274.324, 272.805 261.415, 248.173 264.184 M 250.490 276.675 C 249.496 280.346, 246.280 288.247, 243.342 294.233 C 235.379 310.457, 235.825 313.607, 247.308 322.293 C 249.770 324.155, 251 325.888, 251 327.495 C 251 329.203, 252.237 330.757, 255.250 332.836 C 257.587 334.448, 260.357 336.720, 261.405 337.884 C 263.480 340.189, 265.508 340.606, 266.538 338.939 C 266.899 338.355, 266.250 335.684, 265.097 333.004 C 262.565 327.117, 263.268 324.423, 268.348 320.548 C 272.845 317.118, 275.389 311.785, 274.663 307.310 C 274.345 305.351, 270.472 298.446, 265.621 291.192 C 260.954 284.211, 256.381 276.587, 255.459 274.250 C 254.537 271.913, 253.448 270, 253.040 270 C 252.631 270, 251.484 273.004, 250.490 276.675 M 228.806 295.572 C 225.111 300.960, 224 304.294, 224 310 C 224 318.553, 227.178 323.730, 234.500 327.110 C 238.778 329.084, 245 329.630, 245 328.031 C 245 327.498, 242.520 325.475, 239.488 323.536 C 230.521 317.800, 228.286 311.691, 231.086 300.571 C 231.684 298.198, 232.021 295.219, 231.836 293.950 C 231.526 291.824, 231.289 291.951, 228.806 295.572 M 276 292.379 C 276 292.588, 277.188 295.354, 278.640 298.526 C 283.512 309.166, 281.835 318.344, 274.025 323.794 C 270.233 326.440, 268.088 330.530, 269.695 332.053 C 270.819 333.119, 279.933 328.513, 283.256 325.199 C 287.364 321.101, 288.784 313.165, 286.691 306 C 284.930 299.972, 279.648 292, 277.413 292 C 276.636 292, 276 292.171, 276 292.379 M 255.051 299 C 255.001 299.825, 254.549 303.343, 254.046 306.817 C 253.477 310.753, 253.499 315.466, 254.104 319.317 C 255.416 327.667, 255.893 329, 257.567 329 C 259.035 329, 259.628 323.411, 259.105 314.500 C 258.860 310.330, 255.211 296.376, 255.051 299 M 261.196 341.713 C 257.262 342.465, 255.967 349.983, 259.385 352.235 C 259.998 352.639, 262.413 352.976, 264.750 352.985 C 269.462 353.002, 273 350.435, 273 347 C 273 342.426, 268.354 340.345, 261.196 341.713" stroke="none" fill="black" fill-rule="evenodd"/>
</svg>